<?xml version="1.0" encoding="UTF-8" standalone="no"?>
<!-- Created with Inkscape (http://www.inkscape.org/) -->

<svg
   width="207.15601mm"
   height="112.23535mm"
   viewBox="0 0 207.156 112.23535"
   version="1.1"
   id="svg5867"
   xml:space="preserve"
   inkscape:version="1.2.1 (9c6d41e410, 2022-07-14)"
   sodipodi:docname="180_analog_indicator_face.svg"
   xmlns:inkscape="http://www.inkscape.org/namespaces/inkscape"
   xmlns:sodipodi="http://sodipodi.sourceforge.net/DTD/sodipodi-0.dtd"
   xmlns="http://www.w3.org/2000/svg"
   xmlns:svg="http://www.w3.org/2000/svg"><sodipodi:namedview
     id="namedview5869"
     pagecolor="#ffffff"
     bordercolor="#000000"
     borderopacity="0.25"
     inkscape:showpageshadow="2"
     inkscape:pageopacity="0.0"
     inkscape:pagecheckerboard="0"
     inkscape:deskcolor="#d1d1d1"
     inkscape:document-units="mm"
     showgrid="false"
     inkscape:zoom="0.5"
     inkscape:cx="331"
     inkscape:cy="334"
     inkscape:window-width="1366"
     inkscape:window-height="705"
     inkscape:window-x="2180"
     inkscape:window-y="1073"
     inkscape:window-maximized="1"
     inkscape:current-layer="layer1" /><defs
     id="defs5864" /><g
     inkscape:label="Layer 1"
     inkscape:groupmode="layer"
     id="layer1"
     transform="translate(-12.84398,-28.870652)"><path
       id="rect12313"
       style="fill:#550044;fill-opacity:1;stroke:none;stroke-width:0.311175;stroke-linecap:round;stroke-linejoin:round;stroke-dasharray:0, 1.32249;stroke-dashoffset:0;stroke-opacity:1"
       d="M 110.653 45.192653 L 110.653 50.497756 A 80 80 0 0 1 111.15271 50.503957 L 111.15271 45.192653 L 110.653 45.192653 z M 84.874209 49.275608 L 84.398786 49.430121 L 85.974917 54.281504 A 80 80 0 0 1 86.447239 54.116139 L 84.874209 49.275608 z M 136.9315 49.275608 L 135.23186 54.50578 A 80 80 0 0 1 135.70625 54.66391 L 137.40692 49.430121 L 136.9315 49.275608 z M 61.143357 61.279527 L 60.738731 61.573049 L 63.616591 65.534047 A 80 80 0 0 1 64.018634 65.237424 L 61.143357 61.279527 z M 160.66235 61.279527 L 157.34472 65.846173 A 80 80 0 0 1 157.74831 66.140728 L 161.06697 61.573049 L 160.66235 61.279527 z M 42.283527 80.02877 L 41.989488 80.433396 L 45.781504 83.188267 A 80 80 0 0 1 46.078127 82.785707 L 42.283527 80.02877 z M 179.52218 80.02877 L 174.88835 83.395489 A 80 80 0 0 1 175.18342 83.799082 L 179.81622 80.433396 L 179.52218 80.02877 z M 30.140599 103.68831 L 29.986086 104.16425 L 34.258177 105.55228 A 80 80 0 0 1 34.423541 105.07995 L 30.140599 103.68831 z M 191.66562 103.68831 L 186.20601 105.46236 A 80 80 0 0 1 186.36414 105.93675 L 191.82014 104.16425 L 191.66562 103.68831 z M 25.903131 129.94252 L 25.903131 130.44275 L 30.231032 130.44275 A 80 80 0 0 1 30.249636 129.94252 L 25.903131 129.94252 z M 190.22127 129.94252 A 80 80 0 0 1 190.22798 130.44275 L 195.90309 130.44275 L 195.90309 129.94252 L 190.22127 129.94252 z " /><path
       id="path12343"
       style="fill:#000000;fill-opacity:1;stroke:none;stroke-width:1.26942;stroke-linecap:round;stroke-linejoin:round;stroke-dasharray:0, 5.39502;stroke-dashoffset:0;stroke-opacity:1"
       d="m 110,123.07156 a 6.25,6.25 0 0 0 -6.24974,6.25026 6.25,6.25 0 0 0 4.28191,5.92832 2,2 0 0 0 -0.032,0.34985 2,2 0 0 0 1.99987,1.99988 2,2 0 0 0 1.99988,-1.99988 2,2 0 0 0 -0.0305,-0.35036 6.25,6.25 0 0 0 4.28036,-5.92781 A 6.25,6.25 0 0 0 110,123.07156 Z" /><text
       xml:space="preserve"
       style="font-style:normal;font-variant:normal;font-weight:normal;font-stretch:normal;font-size:14.3019px;font-family:'Century Gothic';-inkscape-font-specification:'Century Gothic';fill:#00ffc7;fill-opacity:1;stroke:#00ffc7;stroke-width:1.43019;stroke-linecap:round;stroke-dasharray:none;stroke-opacity:1"
       x="13.105157"
       y="130.24599"
       id="text2211"><tspan
         sodipodi:role="line"
         id="tspan2209"
         style="fill:#00ffc7;fill-opacity:1;stroke:#00ffc7;stroke-width:1.43019;stroke-opacity:1"
         x="13.105157"
         y="130.24599">0</tspan></text><text
       xml:space="preserve"
       style="font-size:14.3019px;font-family:'Comic Sans MS';-inkscape-font-specification:'Comic Sans MS';letter-spacing:0.504539px;fill:#000000;stroke:#00ffc7;stroke-width:1.43019;stroke-linecap:round;stroke-dasharray:none;stroke-opacity:1"
       x="12.585257"
       y="100.86771"
       id="text2157"><tspan
         sodipodi:role="line"
         id="tspan2155"
         style="font-style:normal;font-variant:normal;font-weight:normal;font-stretch:normal;font-size:14.3019px;font-family:'Century Gothic';-inkscape-font-specification:'Century Gothic';fill:#000000;stroke:#00ffc7;stroke-width:1.43019;stroke-opacity:1"
         x="12.585257"
         y="100.86771"><tspan
   style="letter-spacing:-1.26135px;stroke:#00ffc7;stroke-width:1.43019;stroke-opacity:1"
   id="tspan8207">1</tspan>0</tspan></text><text
       xml:space="preserve"
       style="font-size:14.3019px;font-family:'Comic Sans MS';-inkscape-font-specification:'Comic Sans MS';letter-spacing:0.504539px;fill:#000000;stroke:#00ffc7;stroke-width:1.43019;stroke-linecap:round;stroke-dasharray:none;stroke-opacity:1"
       x="22.882217"
       y="76.816727"
       id="text2157-0"><tspan
         sodipodi:role="line"
         id="tspan2155-6"
         style="font-style:normal;font-variant:normal;font-weight:normal;font-stretch:normal;font-size:14.3019px;font-family:'Century Gothic';-inkscape-font-specification:'Century Gothic';fill:#000000;stroke:#00ffc7;stroke-width:1.43019;stroke-opacity:1"
         x="22.882217"
         y="76.816727">20</tspan></text><text
       xml:space="preserve"
       style="font-size:14.3019px;font-family:'Comic Sans MS';-inkscape-font-specification:'Comic Sans MS';letter-spacing:0.504539px;fill:#000000;stroke:#00ffc7;stroke-width:1.43019;stroke-linecap:round;stroke-dasharray:none;stroke-opacity:1"
       x="40.391956"
       y="58.596123"
       id="text2157-0-0"><tspan
         sodipodi:role="line"
         style="font-style:normal;font-variant:normal;font-weight:normal;font-stretch:normal;font-size:14.3019px;font-family:'Century Gothic';-inkscape-font-specification:'Century Gothic';fill:#000000;stroke:#00ffc7;stroke-width:1.43019;stroke-opacity:1"
         x="40.391956"
         y="58.596123"
         id="tspan11743">30</tspan></text><text
       xml:space="preserve"
       style="font-size:14.3019px;font-family:'Comic Sans MS';-inkscape-font-specification:'Comic Sans MS';letter-spacing:0.504539px;fill:#000000;stroke:#00ffc7;stroke-width:1.43019;stroke-linecap:round;stroke-dasharray:none;stroke-opacity:1"
       x="65.636185"
       y="46.730324"
       id="text2157-0-0-5"><tspan
         sodipodi:role="line"
         style="font-style:normal;font-variant:normal;font-weight:normal;font-stretch:normal;font-size:14.3019px;font-family:'Century Gothic';-inkscape-font-specification:'Century Gothic';fill:#000000;stroke:#00ffc7;stroke-width:1.43019;stroke-opacity:1"
         x="65.636185"
         y="46.730324"
         id="tspan11743-1">40</tspan></text><text
       xml:space="preserve"
       style="font-size:14.3019px;font-family:'Comic Sans MS';-inkscape-font-specification:'Comic Sans MS';letter-spacing:0.504539px;fill:#000000;stroke:#00ffc7;stroke-width:1.43019;stroke-linecap:round;stroke-dasharray:none;stroke-opacity:1"
       x="101.48904"
       y="40.116638"
       id="text2157-0-0-5-7"><tspan
         sodipodi:role="line"
         style="font-style:normal;font-variant:normal;font-weight:normal;font-stretch:normal;font-size:14.3019px;font-family:'Century Gothic';-inkscape-font-specification:'Century Gothic';fill:#000000;stroke:#00ffc7;stroke-width:1.43019;stroke-opacity:1"
         x="101.48904"
         y="40.116638"
         id="tspan11801">50</tspan></text><text
       xml:space="preserve"
       style="font-size:14.3019px;font-family:'Comic Sans MS';-inkscape-font-specification:'Comic Sans MS';letter-spacing:0.504539px;fill:#000000;stroke:#00ffc7;stroke-width:1.43019;stroke-linecap:round;stroke-dasharray:none;stroke-opacity:1"
       x="137.17427"
       y="46.201157"
       id="text2157-0-0-5-7-5"><tspan
         sodipodi:role="line"
         style="font-style:normal;font-variant:normal;font-weight:normal;font-stretch:normal;font-size:14.3019px;font-family:'Century Gothic';-inkscape-font-specification:'Century Gothic';fill:#000000;stroke:#00ffc7;stroke-width:1.43019;stroke-opacity:1"
         x="137.17427"
         y="46.201157"
         id="tspan11801-3">60</tspan></text><text
       xml:space="preserve"
       style="font-size:14.3019px;font-family:'Comic Sans MS';-inkscape-font-specification:'Comic Sans MS';letter-spacing:0.504539px;fill:#000000;stroke:#00ffc7;stroke-width:1.43019;stroke-linecap:round;stroke-dasharray:none;stroke-opacity:1"
       x="162.64021"
       y="59.12529"
       id="text2157-0-0-5-7-7"><tspan
         sodipodi:role="line"
         style="font-style:normal;font-variant:normal;font-weight:normal;font-stretch:normal;font-size:14.3019px;font-family:'Century Gothic';-inkscape-font-specification:'Century Gothic';fill:#000000;stroke:#00ffc7;stroke-width:1.43019;stroke-opacity:1"
         x="162.64021"
         y="59.12529"
         id="tspan11801-5">70</tspan></text><text
       xml:space="preserve"
       style="font-size:14.3019px;font-family:'Comic Sans MS';-inkscape-font-specification:'Comic Sans MS';letter-spacing:0.504539px;fill:#000000;stroke:#00ffc7;stroke-width:1.43019;stroke-linecap:round;stroke-dasharray:none;stroke-opacity:1"
       x="180.24231"
       y="76.816727"
       id="text2157-0-0-5-7-1"><tspan
         sodipodi:role="line"
         style="font-style:normal;font-variant:normal;font-weight:normal;font-stretch:normal;font-size:14.3019px;font-family:'Century Gothic';-inkscape-font-specification:'Century Gothic';fill:#000000;stroke:#00ffc7;stroke-width:1.43019;stroke-opacity:1"
         x="180.24231"
         y="76.816727"
         id="tspan11801-1">80</tspan></text><text
       xml:space="preserve"
       style="font-size:14.3019px;font-family:'Comic Sans MS';-inkscape-font-specification:'Comic Sans MS';letter-spacing:0.504539px;fill:#000000;stroke:#00ffc7;stroke-width:1.43019;stroke-linecap:round;stroke-dasharray:none;stroke-opacity:1"
       x="193.37427"
       y="101.39687"
       id="text2157-0-0-5-7-79"><tspan
         sodipodi:role="line"
         style="font-style:normal;font-variant:normal;font-weight:normal;font-stretch:normal;font-size:14.3019px;font-family:'Century Gothic';-inkscape-font-specification:'Century Gothic';fill:#000000;stroke:#00ffc7;stroke-width:1.43019;stroke-opacity:1"
         x="193.37427"
         y="101.39687"
         id="tspan11801-17">90</tspan></text><text
       xml:space="preserve"
       style="font-size:14.3019px;font-family:'Comic Sans MS';-inkscape-font-specification:'Comic Sans MS';fill:#000000;stroke:#00ffc7;stroke-width:1.43019;stroke-linecap:round;stroke-dasharray:none;stroke-opacity:1"
       x="195.71768"
       y="130.24599"
       id="text2157-0-0-5-7-0"><tspan
         sodipodi:role="line"
         style="font-style:normal;font-variant:normal;font-weight:normal;font-stretch:normal;font-size:14.3019px;font-family:'Century Gothic';-inkscape-font-specification:'Century Gothic';fill:#000000;stroke:#00ffc7;stroke-width:1.43019;stroke-opacity:1"
         x="195.71768"
         y="130.24599"
         id="tspan11801-2"><tspan
           style="letter-spacing:-2.27042px;stroke-width:1.43019"
           id="tspan11906">1</tspan><tspan
           style="letter-spacing:0.504539px;stroke-width:1.43019"
           id="tspan11904">00</tspan></tspan></text><rect
       style="fill:#000000;fill-opacity:1;stroke:none;stroke-width:0.340493;stroke-linecap:round;stroke-linejoin:round;stroke-dasharray:0, 1.44709"
       id="rect8728"
       width="10"
       height="3.5"
       x="210"
       y="137.606" /><rect
       style="fill:#000000;fill-opacity:1;stroke:none;stroke-width:0.340493;stroke-linecap:round;stroke-linejoin:round;stroke-dasharray:0, 1.44709"
       id="rect8728-1"
       width="10"
       height="3.5"
       x="12.84398"
       y="137.67065" /><path
       id="rect4397"
       style="display:inline;fill:#ffaacc;fill-opacity:1;stroke:none;stroke-width:0.311175;stroke-linecap:round;stroke-linejoin:round;stroke-dasharray:0, 1.32249;stroke-dashoffset:0;stroke-opacity:1"
       inkscape:label="5"
       d="m 103.87526,30.323487 -0.47515,0.154783 1.14112,3.511529 a 81.25,81.25 0 0 1 0.47622,-0.151291 z m 25.77888,-4.082973 1.3e-4,3.879027 a 81.25,81.25 0 0 1 0.49994,0.0051 l 1.6e-4,-3.883783 z m -49.509525,16.086739 -0.404478,0.293751 2.081468,2.865022 a 81.25,81.25 0 0 1 0.400365,-0.2999 z m 75.788075,-12.003652 -1.25395,3.859477 a 81.25,81.25 0 0 1 0.47433,0.157178 l 1.25508,-3.862272 z m -94.648123,30.753413 -0.29382,0.40441 2.7475,1.996176 a 81.25,81.25 0 0 1 0.293821,-0.40441 z M 179.66366,42.327608 177.1911,45.730796 a 81.25,81.25 0 0 1 0.40441,0.293821 l 2.47256,-3.403188 z m -130.522108,42.408735 -0.154383,0.475455 3.108717,1.009752 a 81.25,81.25 0 0 1 0.161584,-0.472934 z m 149.381938,-23.659774 -3.48768,2.533775 a 81.25,81.25 0 0 1 0.29614,0.403053 l 3.4858,-2.532431 z m -153.619539,49.914141 2.12e-4,0.50015 3.169541,-2.5e-4 a 81.25,81.25 0 0 1 0.01499,-0.49994 z m 165.762779,-26.254245 -4.14647,1.347368 a 81.25,81.25 0 0 1 0.15682,0.474823 l 4.144,-1.346454 z"
       transform="rotate(9,-8.1560906e-6,1.2811436e-6)" /><path
       id="rect4391"
       style="display:inline;fill:#00b995;fill-opacity:1;stroke:none;stroke-width:0.311175;stroke-linecap:round;stroke-linejoin:round;stroke-dasharray:0, 1.32249;stroke-dashoffset:0;stroke-opacity:1"
       d="M 115.93928 38.02138 L 116.01644 40.482223 A 82.5 82.5 0 0 1 116.51639 40.470445 L 116.43898 38.005476 L 115.93928 38.02138 z M 111.10885 38.325803 L 110.61058 38.372685 L 110.84285 40.829983 A 82.5 82.5 0 0 1 111.34092 40.780006 L 111.10885 38.325803 z M 118.60895 37.971474 L 118.60875 40.453753 A 82.5 82.5 0 0 1 119.10901 40.4549 L 119.10914 37.97159 L 118.60895 37.971474 z M 108.45346 38.610921 L 107.95774 38.673694 L 108.26301 41.089636 A 82.5 82.5 0 0 1 108.76001 41.039209 L 108.45346 38.610921 z M 121.27872 38.005443 L 121.20033 40.504033 A 82.5 82.5 0 0 1 121.70011 40.522297 L 121.77889 38.021612 L 121.27872 38.005443 z M 105.809 38.979233 L 105.31532 39.057929 L 105.69248 41.439834 A 82.5 82.5 0 0 1 106.18513 41.352919 L 105.809 38.979233 z M 123.94653 38.123417 L 123.78826 40.636352 A 82.5 82.5 0 0 1 124.28679 40.675924 L 124.4456 38.155188 L 123.94653 38.123417 z M 103.17701 39.430642 L 102.68585 39.524713 L 103.1377 41.892081 A 82.5 82.5 0 0 1 103.6298 41.804682 L 103.17701 39.430642 z M 129.26429 38.610578 L 128.94325 41.15343 A 82.5 82.5 0 0 1 129.43873 41.218565 L 129.76012 38.673102 L 129.26429 38.610578 z M 97.962238 40.580454 L 97.478153 40.704629 L 98.068647 43.004247 A 82.5 82.5 0 0 1 98.552764 42.880587 L 97.962238 40.580454 z M 131.90903 38.979058 L 131.50508 41.529197 A 82.5 82.5 0 0 1 131.99876 41.606873 L 132.40274 39.05725 L 131.90903 38.979058 z M 95.384541 41.277502 L 94.904525 41.416955 L 95.552206 43.64618 A 82.5 82.5 0 0 1 96.036839 43.522488 L 95.384541 41.277502 z M 134.54084 39.430162 L 134.05414 41.981882 A 82.5 82.5 0 0 1 134.54406 42.082059 L 135.03191 39.524053 L 134.54084 39.430162 z M 92.830023 42.054902 L 92.35459 42.2096 L 93.07373 44.42242 A 82.5 82.5 0 0 1 93.547323 44.263178 L 92.830023 42.054902 z M 137.15714 39.964051 L 136.58587 42.521093 A 82.5 82.5 0 0 1 137.07208 42.636519 L 137.64503 40.073158 L 137.15714 39.964051 z M 90.301261 42.912491 L 89.830895 43.081886 L 90.612004 45.250939 A 82.5 82.5 0 0 1 91.085598 45.091696 L 90.301261 42.912491 z M 142.33319 41.276677 L 141.59052 43.833629 A 82.5 82.5 0 0 1 142.07001 43.973814 L 142.81316 41.416314 L 142.33319 41.276677 z M 85.330547 44.863497 L 84.871862 45.062189 L 85.777043 47.154052 A 82.5 82.5 0 0 1 86.237535 46.959389 L 85.330547 44.863497 z M 144.8877 42.054707 L 144.05958 44.603055 A 82.5 82.5 0 0 1 144.53482 44.758005 L 145.36291 42.209141 L 144.8877 42.054707 z M 82.893687 45.955558 L 82.441584 46.168333 L 83.381185 48.165347 A 82.5 82.5 0 0 1 83.842192 47.970651 L 82.893687 45.955558 z M 147.41666 42.912013 L 146.50385 45.447566 A 82.5 82.5 0 0 1 146.97116 45.624761 L 147.8871 43.081245 L 147.41666 42.912013 z M 80.492638 47.123033 L 80.047117 47.349892 L 81.065501 49.348163 A 82.5 82.5 0 0 1 81.509893 49.119821 L 80.492638 47.123033 z M 149.91696 43.848789 L 148.91614 46.376417 A 82.5 82.5 0 0 1 149.37953 46.565251 L 150.38212 44.032852 L 149.91696 43.848789 z M 78.128949 48.365825 L 77.691041 48.606704 L 78.751688 50.536039 A 82.5 82.5 0 0 1 79.196597 50.307665 L 78.128949 48.365825 z M 154.82397 45.95502 L 153.6502 48.449517 A 82.5 82.5 0 0 1 154.10268 48.662338 L 155.27645 46.167841 L 154.82397 45.95502 z M 73.524605 51.07046 L 73.102374 51.338313 L 74.273746 53.18405 A 82.5 82.5 0 0 1 74.700041 52.92319 L 73.524605 51.07046 z M 157.22541 47.122736 L 155.96672 49.592544 A 82.5 82.5 0 0 1 156.4105 49.823517 L 157.67099 47.349453 L 157.22541 47.122736 z M 71.288462 52.529948 L 70.875327 52.810691 L 72.077613 54.579921 A 82.5 82.5 0 0 1 72.483297 54.287738 L 71.288462 52.529948 z M 159.58909 48.365316 L 158.24497 50.810468 A 82.5 82.5 0 0 1 158.67941 51.057562 L 160.02726 48.605962 L 159.58909 48.365316 z M 69.099669 54.058946 L 68.695113 54.352612 L 69.964922 56.100507 A 82.5 82.5 0 0 1 70.370607 55.808324 L 69.099669 54.058946 z M 161.91235 49.681377 L 160.48122 52.101453 A 82.5 82.5 0 0 1 160.9096 52.359284 L 162.3426 49.935984 L 161.91235 49.681377 z M 66.959159 55.655843 L 66.564215 55.962367 L 67.851233 57.621673 A 82.5 82.5 0 0 1 68.257433 57.329458 L 66.959159 55.655843 z M 166.42902 52.5293 L 164.83005 54.882268 A 82.5 82.5 0 0 1 165.24428 55.162218 L 166.84281 52.810314 L 166.42902 52.5293 z M 62.835044 59.047398 L 62.459741 59.378058 L 63.845877 60.950354 A 82.5 82.5 0 0 1 64.228985 60.628524 L 62.835044 59.047398 z M 168.61863 54.058295 L 166.93889 56.370262 A 82.5 82.5 0 0 1 167.33885 56.670268 L 169.02288 54.352336 L 168.61863 54.058295 z M 60.854854 60.838735 L 60.490129 61.181155 L 61.914183 62.697734 A 82.5 82.5 0 0 1 62.272232 62.347966 L 60.854854 60.838735 z M 170.75865 55.655133 L 168.99473 57.929419 A 82.5 82.5 0 0 1 169.38603 58.239809 L 171.15333 55.961685 L 170.75865 55.655133 z M 58.931842 62.691197 L 58.578178 63.044831 L 60.050695 64.516937 A 82.5 82.5 0 0 1 60.408261 64.167718 L 58.931842 62.691197 z M 172.84745 57.318363 L 171.00112 59.550198 A 82.5 82.5 0 0 1 171.3843 59.871454 L 173.23256 57.637426 L 172.84745 57.318363 z M 57.067973 64.603108 L 56.72537 64.967955 L 58.202397 66.355379 A 82.5 82.5 0 0 1 58.543323 65.988566 L 57.067973 64.603108 z M 176.86324 60.8383 L 174.86101 62.970691 A 82.5 82.5 0 0 1 175.22483 63.313358 L 177.22754 61.18042 L 176.86324 60.8383 z M 53.524496 68.598634 L 53.205949 68.983715 L 54.755042 70.265636 A 82.5 82.5 0 0 1 55.0861 69.890124 L 53.524496 68.598634 z M 178.78633 62.690592 L 176.70917 64.767634 A 82.5 82.5 0 0 1 177.05794 65.126264 L 179.13996 63.044256 L 178.78633 62.690592 z M 51.848722 70.677347 L 51.542718 71.072512 L 53.144757 72.315375 A 82.5 82.5 0 0 1 53.446407 71.91686 L 51.848722 70.677347 z M 180.65004 64.603059 L 178.49546 66.626462 A 82.5 82.5 0 0 1 178.8344 66.993477 L 180.99243 64.967268 L 180.65004 64.603059 z M 50.239406 72.808318 L 49.945365 73.212569 L 51.572038 74.394336 A 82.5 82.5 0 0 1 51.873656 73.995305 L 50.239406 72.808318 z M 182.45314 66.572671 L 180.22445 68.537566 A 82.5 82.5 0 0 1 180.5536 68.913482 L 182.78376 66.947458 L 182.45314 66.572671 z M 48.697384 74.988388 L 48.416337 75.401658 L 50.060165 76.518659 A 82.5 82.5 0 0 1 50.330958 76.098784 L 48.697384 74.988388 z M 185.86883 70.677145 L 183.50303 72.5119 A 82.5 82.5 0 0 1 183.8071 72.909069 L 186.17535 71.072089 L 185.86883 70.677145 z M 45.823053 79.488596 L 45.568447 79.918844 L 47.236138 80.904897 A 82.5 82.5 0 0 1 47.502611 80.482187 L 45.823053 79.488596 z M 187.47855 72.807528 L 185.04587 74.575036 A 82.5 82.5 0 0 1 185.33509 74.982978 L 187.77222 73.212083 L 187.47855 72.807528 z M 44.493548 81.8039 L 44.252386 82.242103 L 45.989563 83.19686 A 82.5 82.5 0 0 1 46.228597 82.757754 L 44.493548 81.8039 z M 189.02047 74.987742 L 186.52081 76.686456 A 82.5 82.5 0 0 1 186.7991 77.101816 L 189.30125 75.401393 L 189.02047 74.987742 z M 43.237038 84.160176 L 43.009805 84.605788 L 44.742988 85.488823 A 82.5 82.5 0 0 1 44.981989 85.049202 L 43.237038 84.160176 z M 190.49288 77.215305 L 187.93014 78.841356 A 82.5 82.5 0 0 1 188.19802 79.264102 L 190.76073 77.637535 L 190.49288 77.215305 z M 42.054911 86.554748 L 41.84209 87.00722 L 43.611451 87.839825 A 82.5 82.5 0 0 1 43.816792 87.383682 L 42.054911 86.554748 z M 193.22446 81.803456 L 190.55092 83.273374 A 82.5 82.5 0 0 1 190.78729 83.713637 L 193.46534 82.241364 L 193.22446 81.803456 z M 39.919921 91.449077 L 39.735826 91.913722 L 41.521092 92.620541 A 82.5 82.5 0 0 1 41.691388 92.15055 L 39.919921 91.449077 z M 194.48075 84.159564 L 191.75097 85.550176 A 82.5 82.5 0 0 1 191.97383 85.99802 L 194.70813 84.605053 L 194.48075 84.159564 z M 38.96883 93.944063 L 38.799598 94.414504 L 40.629489 95.073467 A 82.5 82.5 0 0 1 40.800301 94.603444 L 38.96883 93.944063 z M 195.66283 86.553998 L 192.87928 87.863594 A 82.5 82.5 0 0 1 193.0906 88.317341 L 195.87564 87.006617 L 195.66283 86.553998 z M 38.096179 96.467769 L 37.941777 96.943491 L 39.737919 97.526909 A 82.5 82.5 0 0 1 39.908731 97.056887 L 38.096179 96.467769 z M 196.769 88.984792 L 193.93716 90.20992 A 82.5 82.5 0 0 1 194.13688 90.66854 L 196.96718 89.443509 L 196.769 88.984792 z M 37.303899 99.018004 L 37.164263 99.497975 L 39.019764 100.03727 A 82.5 82.5 0 0 1 39.155177 99.556013 L 37.303899 99.018004 z M 198.74931 93.943826 L 195.83645 94.992308 A 82.5 82.5 0 0 1 196.0003 95.465093 L 198.9187 94.414192 L 198.74931 93.943826 z M 35.960744 104.18613 L 35.851637 104.67402 L 37.716532 105.09105 A 82.5 82.5 0 0 1 37.815645 104.60068 L 35.960744 104.18613 z M 199.62159 96.467521 L 196.66692 97.427503 A 82.5 82.5 0 0 1 196.81808 97.904194 L 199.77578 96.942986 L 199.62159 96.467521 z M 35.411122 106.79929 L 35.317747 107.29033 L 37.200767 107.64977 A 82.5 82.5 0 0 1 37.299365 107.15944 L 35.411122 106.79929 z M 200.41424 99.017455 L 197.42227 99.886583 A 82.5 82.5 0 0 1 197.5612 100.36663 L 200.55369 99.497472 L 200.41424 99.017455 z M 34.944319 109.42846 L 34.866128 109.92217 L 36.724848 110.21635 A 82.5 82.5 0 0 1 36.786824 109.72004 L 34.944319 109.42846 z M 201.12653 101.59057 L 198.10335 102.3669 A 82.5 82.5 0 0 1 198.2301 102.85083 L 201.25074 102.07517 L 201.12653 101.59057 z M 34.560655 112.07052 L 34.497647 112.5669 L 36.401152 112.80752 A 82.5 82.5 0 0 1 36.463095 112.31069 L 34.560655 112.07052 z M 202.30648 106.79879 L 199.23506 107.3845 A 82.5 82.5 0 0 1 199.32352 107.87705 L 202.40004 107.28997 L 202.30648 106.79879 z M 34.042257 117.38559 L 34.011002 117.88463 L 35.918841 118.00485 A 82.5 82.5 0 0 1 35.943326 117.5052 L 34.042257 117.38559 z M 202.77323 109.42773 L 199.67666 109.91821 A 82.5 82.5 0 0 1 199.75278 110.41205 L 202.85141 109.92144 L 202.77323 109.42773 z M 33.908681 120.05231 L 33.892996 120.55192 L 35.789785 120.61174 A 82.5 82.5 0 0 1 35.814786 120.11206 L 33.908681 120.05231 z M 203.15747 112.07016 L 200.04187 112.46397 A 82.5 82.5 0 0 1 200.10568 112.95962 L 203.21976 112.56642 L 203.15747 112.07016 z M 33.859175 122.72202 L 33.859059 123.22221 L 35.755695 123.22197 A 82.5 82.5 0 0 1 35.742885 122.72208 L 33.859175 122.72202 z M 203.45799 114.72354 L 200.33053 115.0192 A 82.5 82.5 0 0 1 200.38099 115.51673 L 203.50536 115.22126 L 203.45799 114.72354 z M 33.893061 125.39218 L 33.908966 125.89188 L 35.822016 125.83159 A 82.5 82.5 0 0 1 35.809238 125.33221 L 33.893061 125.39218 z "
       transform="rotate(3.6,-2.050075e-5,2.2368613e-6)" /><circle
       style="display:inline;fill:#0000ff;stroke-width:0.273214;stroke-linecap:round;stroke-linejoin:round;stroke-dasharray:0, 1.16116"
       id="path1944"
       cx="111.215"
       cy="81.214996"
       r="1.215" /></g></svg>
